HIERARCHY
ROOT Hips
{
	OFFSET -0.001795 -0.223333 0.028219
	CHANNELS 6 Xposition Yposition Zposition Zrotation Yrotation Xrotation 
	JOINT LeftUpLeg
	{
		OFFSET 0.069520 -0.091406 -0.006815
		CHANNELS 3 Zrotation Yrotation Xrotation
		JOINT LeftLeg
		{
			OFFSET 0.034277 -0.375199 -0.004496
			CHANNELS 3 Zrotation Yrotation Xrotation
			JOINT LeftFoot
			{
				OFFSET -0.013596 -0.397961 -0.043693
				CHANNELS 3 Zrotation Yrotation Xrotation
				JOINT LeftToe
				{
					OFFSET 0.026358 -0.055791 0.119288
					CHANNELS 3 Zrotation Yrotation Xrotation
					End Site
					{
						OFFSET 0.000000 0.000000 0.000000
					}
				}
			}
		}
	}
	JOINT RightUpLeg
	{
		OFFSET -0.067670 -0.090522 -0.004320
		CHANNELS 3 Zrotation Yrotation Xrotation
		JOINT RightLeg
		{
			OFFSET -0.038290 -0.382569 -0.008850
			CHANNELS 3 Zrotation Yrotation Xrotation
			JOINT RightFoot
			{
				OFFSET 0.015774 -0.398415 -0.042312
				CHANNELS 3 Zrotation Yrotation Xrotation
				JOINT RightToe
				{
					OFFSET -0.025372 -0.048144 0.123348
					CHANNELS 3 Zrotation Yrotation Xrotation
					End Site
					{
						OFFSET 0.000000 0.000000 0.000000
					}
				}
			}
		}
	}
	JOINT Spine
	{
		OFFSET -0.002533 0.108963 -0.026696
		CHANNELS 3 Zrotation Yrotation Xrotation
		JOINT Spine1
		{
			OFFSET 0.005487 0.135180 0.001092
			CHANNELS 3 Zrotation Yrotation Xrotation
			JOINT Spine2
			{
				OFFSET 0.001457 0.052922 0.025425
				CHANNELS 3 Zrotation Yrotation Xrotation
				JOINT Neck
				{
					OFFSET -0.002778 0.213870 -0.042857
					CHANNELS 3 Zrotation Yrotation Xrotation
					JOINT Head
					{
						OFFSET 0.005152 0.064970 0.051349
						CHANNELS 3 Zrotation Yrotation Xrotation
						End Site
						{
							OFFSET 0.000000 0.000000 0.000000
						}
					}
				}
				JOINT LeftShoulder
				{
					OFFSET 0.078845 0.121749 -0.034090
					CHANNELS 3 Zrotation Yrotation Xrotation
					JOINT LeftArm
					{
						OFFSET 0.090977 0.030469 -0.008868
						CHANNELS 3 Zrotation Yrotation Xrotation
						JOINT LeftForeArm
						{
							OFFSET 0.259612 -0.012772 -0.027456
							CHANNELS 3 Zrotation Yrotation Xrotation
							JOINT LeftHand
							{
								OFFSET 0.249234 0.008986 -0.001171
								CHANNELS 3 Zrotation Yrotation Xrotation
								End Site
								{
									OFFSET 0.000000 0.000000 0.000000
								}
							}
						}
					}
				}
				JOINT RightShoulder
				{
					OFFSET -0.081759 0.118833 -0.038615
					CHANNELS 3 Zrotation Yrotation Xrotation
					JOINT RightArm
					{
						OFFSET -0.096012 0.032551 -0.009143
						CHANNELS 3 Zrotation Yrotation Xrotation
						JOINT RightForeArm
						{
							OFFSET -0.253742 -0.013329 -0.021401
							CHANNELS 3 Zrotation Yrotation Xrotation
							JOINT RightHand
							{
								OFFSET -0.255298 0.007772 -0.005559
								CHANNELS 3 Zrotation Yrotation Xrotation
								End Site
								{
									OFFSET 0.000000 0.000000 0.000000
								}
							}
						}
					}
				}
			}
		}
	}
}
MOTION
Frames: 15
Frame Time: 0.050000
0.000000 0.938057 0.000000 -1.088127 -2.977982 -3.103103 5.529331 0.310091 6.416307 -6.850917 0.812169 0.049096 15.718484 28.095152 16.442365 0.000000 0.000000 0.000000 -5.989972 0.077008 1.394788 2.915071 -0.232670 3.749285 -9.766755 -22.860088 14.714818 0.000000 0.000000 0.000000 6.405195 -0.445926 4.816187 -4.303514 1.636646 -22.416824 -0.850381 6.791232 29.827102 10.335110 -2.651921 -32.297633 0.000000 0.000000 0.000000 -21.881108 -9.423770 2.767376 -59.319896 1.068273 -10.176533 -15.162073 -32.077981 5.925057 0.000000 0.000000 0.000000 30.986704 -2.005173 -1.140745 63.952724 1.884557 -8.557758 4.926176 29.609125 3.289993 0.000000 0.000000 0.000000 
0.000164 0.937251 0.000550 -1.366336 -3.335643 -2.882531 5.626726 0.305145 6.326810 -6.603875 0.785587 -0.028163 16.014633 28.516238 16.295561 0.000000 0.000000 0.000000 -5.772947 0.112105 0.634063 3.018415 -0.227094 4.666206 -9.669471 -22.732353 14.381392 0.000000 0.000000 0.000000 7.021128 -0.477471 4.867999 -4.897101 1.786647 -22.244914 -0.972057 6.459541 29.348161 10.770394 -2.726688 -33.737222 0.000000 0.000000 0.000000 -21.358371 -8.693190 2.541659 -58.757560 1.166301 -10.152838 -17.360209 -33.759418 6.993816 0.000000 0.000000 0.000000 30.530015 -2.177423 -1.536859 64.711534 1.245687 -8.841154 5.543500 29.932993 3.441142 0.000000 0.000000 0.000000 
0.000290 0.936944 0.000701 -1.125252 -3.914653 -2.856663 5.465798 0.318898 6.181838 -6.924944 0.845540 0.301030 16.347061 28.920700 16.571789 0.000000 0.000000 0.000000 -5.716667 0.134210 0.345175 2.365453 -0.123247 4.952373 -9.437736 -22.396066 14.022724 0.000000 0.000000 0.000000 7.088765 -0.474728 4.830751 -5.380728 1.907708 -22.066994 -0.922004 6.637356 29.125600 10.539320 -2.647104 -33.735640 0.000000 0.000000 0.000000 -20.538960 -9.653553 3.157678 -58.574190 0.717600 -9.905015 -19.475379 -34.516216 7.845727 0.000000 0.000000 0.000000 31.332449 -1.819591 -1.451679 62.688672 1.118067 -8.716453 5.809889 29.140682 3.323994 0.000000 0.000000 0.000000 
0.000288 0.936722 0.000671 -1.089962 -4.365563 -3.341289 5.088916 0.391647 6.893123 -6.403496 0.783228 0.091927 16.598935 29.244965 16.734223 0.000000 0.000000 0.000000 -5.649687 0.130557 0.392797 2.115882 -0.064557 5.673593 -9.230573 -22.085569 13.722879 0.000000 0.000000 0.000000 7.169020 -0.521813 5.397894 -5.249761 1.862381 -22.347292 -1.379736 6.693584 29.190660 10.836018 -2.690430 -34.591843 0.000000 0.000000 0.000000 -20.716979 -10.532966 3.709084 -57.868603 0.810619 -9.818976 -22.262340 -38.414935 9.867314 0.000000 0.000000 0.000000 32.249826 -2.013795 -1.712708 62.086294 1.451351 -8.515724 5.917513 29.551348 3.415208 0.000000 0.000000 0.000000 
0.000222 0.936483 0.000291 -1.081904 -4.107028 -3.817580 5.168615 0.386259 6.867026 -6.461429 0.809018 0.971460 16.472825 29.124168 16.464555 0.000000 0.000000 0.000000 -5.494576 0.107060 0.565608 1.859006 -0.009240 6.344624 -9.373404 -22.303914 13.701093 0.000000 0.000000 0.000000 6.890859 -0.560672 6.010813 -4.566751 1.699692 -21.518799 -1.987619 6.070398 28.064970 10.520654 -2.702295 -33.716148 0.000000 0.000000 0.000000 -20.715180 -10.485669 3.756130 -56.512518 0.509999 -9.354226 -29.396519 -44.330623 14.684283 0.000000 0.000000 0.000000 31.534086 -1.509606 -1.555403 61.246159 1.684310 -8.151091 6.507345 29.180549 3.423850 0.000000 0.000000 0.000000 
0.000110 0.936383 -0.000443 -1.278098 -3.900784 -4.328447 5.484485 0.404259 7.521474 -6.537295 0.808924 0.715770 16.279440 28.918180 16.203041 0.000000 0.000000 0.000000 -5.242490 0.063745 1.076452 1.822770 -0.003177 6.443016 -9.445442 -22.408221 13.766132 0.000000 0.000000 0.000000 7.128069 -0.596644 6.371340 -4.316506 1.640025 -21.451863 -2.308794 6.179891 28.163239 10.581327 -2.699228 -33.693688 0.000000 0.000000 0.000000 -20.452997 -11.755994 4.370872 -55.339109 -2.338259 -7.870683 -37.359276 -51.662765 21.643101 0.000000 0.000000 0.000000 31.534199 -1.459452 -1.375016 60.308662 2.247281 -7.839557 6.206979 29.462721 3.404102 0.000000 0.000000 0.000000 
-0.000097 0.936195 -0.001577 -1.321691 -3.623918 -4.782679 5.280991 0.416594 7.562023 -5.986407 0.746901 1.345375 16.191898 28.838388 15.961326 0.000000 0.000000 0.000000 -5.261071 0.046878 1.223346 1.995381 -0.016245 7.031916 -9.577894 -22.611230 13.788378 0.000000 0.000000 0.000000 7.189092 -0.650268 6.970678 -4.138632 1.608898 -20.687175 -2.781671 6.196603 27.451490 10.484187 -2.645674 -33.341039 0.000000 0.000000 0.000000 -20.255114 -12.493781 4.662059 -53.719459 -5.024935 -6.387053 -52.622818 -61.304073 36.520949 0.000000 0.000000 0.000000 31.192760 -0.768473 -0.784716 59.976677 2.893825 -7.449382 6.177932 30.061514 3.474961 0.000000 0.000000 0.000000 
-0.000472 0.936496 -0.003054 -1.578037 -2.843730 -5.031567 5.630878 0.380470 7.594119 -5.877357 0.721830 1.438102 15.733194 28.275504 15.548654 0.000000 0.000000 0.000000 -4.820682 0.004911 1.470626 1.862179 0.000128 7.168660 -9.952022 -23.165829 14.244545 0.000000 0.000000 0.000000 7.381682 -0.695249 7.313126 -4.376613 1.699662 -20.361013 -2.722469 6.144262 27.240094 9.709480 -2.356878 -32.136235 0.000000 0.000000 0.000000 -20.603598 -14.249304 5.463255 -52.153714 -11.007359 -3.590875 -70.095602 -69.341037 56.276565 0.000000 0.000000 0.000000 31.772109 -0.361957 -0.298215 58.626589 2.771825 -7.469763 6.704196 30.493499 3.680238 0.000000 0.000000 0.000000 
-0.000935 0.936565 -0.004407 -1.626715 -1.834895 -5.201723 5.518738 0.346673 7.234401 -5.329797 0.643221 1.996521 15.243738 27.666318 15.049421 0.000000 0.000000 0.000000 -4.823472 -0.026454 1.751239 2.135075 -0.058012 7.143449 -10.437290 -23.880464 14.648653 0.000000 0.000000 0.000000 7.407152 -0.740295 7.698581 -4.560354 1.782170 -20.229161 -2.953991 5.857544 26.809832 8.845387 -1.920133 -31.548493 0.000000 0.000000 0.000000 -20.371849 -16.058026 6.301738 -51.193915 -18.999992 -0.054938 -99.105225 -76.799208 91.050974 0.000000 0.000000 0.000000 32.785509 0.403837 0.392308 57.776009 2.612882 -7.518552 5.927080 30.977158 3.544078 0.000000 0.000000 0.000000 
-0.001419 0.936838 -0.005302 -1.835837 -1.151656 -5.524761 5.913601 0.319779 7.501885 -5.402505 0.641193 1.878442 14.805900 27.106771 14.707869 0.000000 0.000000 0.000000 -4.584480 -0.068363 2.118741 2.252398 -0.085021 7.218457 -10.754692 -24.331761 15.036548 0.000000 0.000000 0.000000 7.639177 -0.796251 8.108114 -5.025614 1.934531 -20.258131 -2.701152 5.372519 26.749449 7.810023 -1.425162 -31.230713 0.000000 0.000000 0.000000 -19.792142 -17.847630 7.241755 -50.452237 -27.273342 3.508069 -148.882980 -78.672102 148.602285 0.000000 0.000000 0.000000 33.413000 1.363545 1.051792 56.516825 2.100858 -7.646783 5.609200 31.318246 3.454699 0.000000 0.000000 0.000000 
-0.001810 0.936652 -0.005519 -1.941632 -0.804087 -5.556171 6.004567 0.304347 7.499716 -5.246736 0.615170 1.832553 14.632439 26.894921 14.454670 0.000000 0.000000 0.000000 -4.731327 -0.079980 2.305744 2.795461 -0.185671 7.021994 -10.904068 -24.550460 15.096157 0.000000 0.000000 0.000000 7.571624 -0.810958 8.252498 -5.123802 1.963206 -20.572847 -2.483763 5.405772 26.965700 7.024146 -0.913647 -31.685644 0.000000 0.000000 0.000000 -19.067552 -19.043806 7.764969 -49.908121 -33.887575 6.361928 -176.398204 -72.550590 -177.944519 0.000000 0.000000 0.000000 33.889824 1.972025 1.632366 56.439179 1.665138 -7.904911 4.903833 31.444474 3.291211 0.000000 0.000000 0.000000 
-0.002021 0.936612 -0.005340 -2.069680 -1.010283 -5.763711 6.364323 0.304978 7.938553 -5.620506 0.661835 1.545547 14.671279 26.949105 14.483006 0.000000 0.000000 0.000000 -4.670222 -0.113068 2.843420 2.916425 -0.212904 6.440124 -10.749593 -24.325403 14.993098 0.000000 0.000000 0.000000 7.941978 -0.838085 8.343198 -5.339703 2.023842 -20.423449 -2.454257 5.553723 26.800927 6.527994 -0.669743 -31.421822 0.000000 0.000000 0.000000 -18.872276 -19.793516 8.127853 -48.675611 -37.296746 7.650192 175.656332 -66.243634 -165.689953 0.000000 0.000000 0.000000 34.117478 2.518548 2.023169 56.329461 1.056828 -8.146787 4.845274 31.217629 3.215781 0.000000 0.000000 0.000000 
-0.002066 0.936265 -0.005104 -2.142790 -1.199043 -5.721556 6.467609 0.316022 8.304150 -5.692328 0.663227 0.906291 14.744129 27.060089 14.454965 0.000000 0.000000 0.000000 -4.685061 -0.121840 3.056682 3.060888 -0.241145 5.963189 -10.638391 -24.167646 14.812388 0.000000 0.000000 0.000000 7.901513 -0.821956 8.227712 -5.258344 1.992130 -20.638370 -2.237025 5.855448 27.121492 6.784590 -0.755374 -31.629829 0.000000 0.000000 0.000000 -18.563214 -19.600097 7.968085 -48.272504 -37.156692 7.449628 176.310537 -60.534781 -165.276397 0.000000 0.000000 0.000000 34.022138 2.429647 2.047211 56.740353 0.368806 -8.540452 5.101209 31.246171 3.304328 0.000000 0.000000 0.000000 
-0.002002 0.936050 -0.004998 -2.244259 -1.739471 -5.593180 6.608298 0.316169 8.194704 -5.859590 0.693646 1.022406 15.058038 27.477145 14.619071 0.000000 0.000000 0.000000 -4.539802 -0.111485 2.942048 2.936648 -0.217620 5.791279 -10.380868 -23.791810 14.575372 0.000000 0.000000 0.000000 8.196751 -0.814752 8.010128 -5.151492 1.946953 -20.684958 -2.128575 6.381816 27.146545 6.998239 -0.830305 -31.658249 0.000000 0.000000 0.000000 -19.468697 -18.512193 7.410210 -47.968379 -34.147564 6.080012 178.967740 -57.723169 -169.421834 0.000000 0.000000 0.000000 34.215208 2.122151 1.887060 57.003376 -0.285969 -8.885951 5.154348 30.953774 3.287709 0.000000 0.000000 0.000000 
-0.001839 0.935914 -0.004902 -2.264000 -2.404060 -5.304668 6.561935 0.333615 8.155899 -5.909016 0.704096 0.727791 15.438647 27.965364 14.926964 0.000000 0.000000 0.000000 -4.404517 -0.080819 2.541186 2.655497 -0.166377 5.775764 -10.085517 -23.358652 14.320766 0.000000 0.000000 0.000000 8.648439 -0.787628 7.528626 -5.323390 1.975372 -20.718939 -1.902669 6.738501 27.439268 7.648972 -1.200028 -31.579660 0.000000 0.000000 0.000000 -20.660237 -16.643426 6.499046 -48.198722 -28.165390 3.563706 -178.027481 -57.808200 -174.820803 0.000000 0.000000 0.000000 34.371122 1.425025 1.342035 57.155299 -1.127762 -9.307564 6.022291 30.306342 3.432550 0.000000 0.000000 0.000000 
